Coordinates
version=1
nRows=16
nColumns=40
inDegrees=yes

Units are S.I. units (second, meters, Newtons, ...)
If the header above contains a line with 'inDegrees', this indicates whether rotational values are in degrees (yes) or radians (no).

endheader
time	pelvis_tilt	pelvis_list	pelvis_rotation	pelvis_tx	pelvis_ty	pelvis_tz	hip_flexion_r	hip_adduction_r	hip_rotation_r	knee_angle_r	knee_angle_r_beta	ankle_angle_r	subtalar_angle_r	mtp_angle_r	hip_flexion_l	hip_adduction_l	hip_rotation_l	knee_angle_l	knee_angle_l_beta	ankle_angle_l	subtalar_angle_l	mtp_angle_l	lumbar_extension	lumbar_bending	lumbar_rotation	arm_flex_r	arm_add_r	arm_rot_r	elbow_flex_r	pro_sup_r	wrist_flex_r	wrist_dev_r	arm_flex_l	arm_add_l	arm_rot_l	elbow_flex_l	pro_sup_l	wrist_flex_l	wrist_dev_l
      4.05000000	     -5.14028578	      4.23255111	     -0.90606942	     -0.43769113	      0.78738716	     -0.79487999	     51.46758606	     -0.99844716	     -7.19814414	     74.08100564	      1.29295746	     22.14565090	      0.00000000	      0.00000000	     61.58492807	     -5.93947502	    -12.73498522	     26.27327106	      0.45855509	    -25.92365837	      0.00000000	      0.00000000	    -20.86633975	    -27.62112125	    -18.26496519	     83.39573545	    -13.20289839	     16.30837914	     53.12959466	     87.60435364	      0.00000000	      0.00000000	     89.96864864	     12.72528892	     21.07941010	     43.24360868	     27.33308488	      0.00000000	      0.00000000
      4.05500000	     -5.21767081	      4.31575931	     -0.89919356	     -0.43750248	      0.78946589	     -0.79483213	     51.30168625	     -1.09998975	     -7.21612078	     73.66239239	      1.28565128	     22.00939269	      0.00000000	      0.00000000	     61.57376850	     -5.87998632	    -12.71936088	     26.31957596	      0.45936326	    -25.94705253	      0.00000000	      0.00000000	    -20.71938114	    -27.70598383	    -18.26902425	     83.41277893	    -13.22008851	     16.30163862	     53.14540083	     87.60231259	      0.00000000	      0.00000000	     89.96865311	     12.70586355	     21.08185679	     43.27073631	     27.31663113	      0.00000000	      0.00000000
      4.06000000	     -5.25744197	      4.39707733	     -0.91123855	     -0.43728701	      0.79173123	     -0.79481722	     51.06381743	     -1.17998496	     -7.20120691	     73.16406340	      1.27695380	     21.81671153	      0.00000000	      0.00000000	     61.50842613	     -5.84314245	    -12.74176067	     26.35517476	      0.45998457	    -25.96159955	      0.00000000	      0.00000000	    -20.58406679	    -27.80518364	    -18.24183641	     83.35377979	    -13.21328150	     16.31538300	     53.13722652	     87.60184166	      0.00000000	      0.00000000	     89.96854526	     12.69573468	     21.10040894	     43.26323543	     27.29729575	      0.00000000	      0.00000000
      4.06500000	     -5.29986085	      4.42348307	     -0.90854240	     -0.43712537	      0.79393194	     -0.79475714	     50.82729590	     -1.20719160	     -7.19918741	     72.65191839	      1.26801518	     21.59153006	      0.00000000	      0.00000000	     61.45049242	     -5.82112376	    -12.75510083	     26.36559188	      0.46016639	    -26.02853566	      0.00000000	      0.00000000	    -20.48595865	    -27.84651383	    -18.25728455	     83.37305362	    -13.20380420	     16.31020624	     53.15319622	     87.60001228	      0.00000000	      0.00000000	     89.96859908	     12.68644669	     21.12798755	     43.23490166	     27.27590035	      0.00000000	      0.00000000
      4.07000000	     -5.20404392	      4.27838457	     -0.91798674	     -0.43680380	      0.79645335	     -0.79452375	     50.37672651	     -1.07928788	     -7.33548941	     72.04975015	      1.25750537	     21.10307305	      0.00000000	      0.00000000	     61.25731451	     -5.94336008	    -12.74168310	     26.35665902	      0.46001048	    -26.24362041	      0.00000000	      0.00000000	    -20.46701046	    -27.72362193	    -18.13435893	     83.30278551	    -13.22167890	     16.27070331	     53.18247627	     87.59021144	      0.00000000	      0.00000000	     89.96857341	     12.69275658	     21.22750629	     43.17610619	     27.19387173	      0.00000000	      0.00000000
      4.07500000	     -5.27944213	      4.36903554	     -0.90113697	     -0.43664820	      0.79852788	     -0.79449401	     50.20265086	     -1.19355796	     -7.35728972	     71.57975806	      1.24930246	     20.94709729	      0.00000000	      0.00000000	     61.24065722	     -5.88498005	    -12.74668094	     26.37798447	      0.46038268	    -26.22994228	      0.00000000	      0.00000000	    -20.32469060	    -27.81916309	    -18.14835059	     83.31068175	    -13.22838728	     16.28231318	     53.18558147	     87.59203091	      0.00000000	      0.00000000	     89.96855660	     12.68468599	     21.22583321	     43.20126784	     27.17957633	      0.00000000	      0.00000000
      4.08000000	     -5.31262634	      4.42215568	     -0.91602525	     -0.43637470	      0.80078823	     -0.79446987	     49.93980536	     -1.23234951	     -7.33609475	     71.04340372	      1.23994131	     20.72162465	      0.00000000	      0.00000000	     61.16028816	     -5.84604540	    -12.77389412	     26.36206222	      0.46010478	    -26.25555024	      0.00000000	      0.00000000	    -20.21781134	    -27.90538230	    -18.17425242	     83.26191783	    -13.20946371	     16.30595454	     53.19046144	     87.59630899	      0.00000000	      0.00000000	     89.96849927	     12.66682524	     21.23598570	     43.17117651	     27.15762217	      0.00000000	      0.00000000
      4.08500000	     -5.34799359	      4.44644405	     -0.89784731	     -0.43617108	      0.80296828	     -0.79441354	     49.68811971	     -1.26014694	     -7.35295065	     70.53611502	      1.23108745	     20.49670907	      0.00000000	      0.00000000	     61.09651675	     -5.82409118	    -12.79743162	     26.34966866	      0.45988847	    -26.30316657	      0.00000000	      0.00000000	    -20.09963988	    -27.92595092	    -18.16822342	     83.26511166	    -13.19140379	     16.30916663	     53.20368615	     87.59782180	      0.00000000	      0.00000000	     89.96850984	     12.64036131	     21.25087220	     43.15380113	     27.13739970	      0.00000000	      0.00000000
      4.09000000	     -5.22877137	      4.33545906	     -0.94863512	     -0.43583044	      0.80548551	     -0.79416255	     49.22360372	     -1.13115645	     -7.43509666	     69.93532767	      1.22060173	     20.04911946	      0.00000000	      0.00000000	     60.85931203	     -5.95453960	    -12.74460884	     26.31615482	      0.45930355	    -26.27800033	      0.00000000	      0.00000000	    -20.10475341	    -27.85869997	    -18.05799888	     83.21209407	    -13.19749461	     16.28849276	     53.23484655	     87.59555219	      0.00000000	      0.00000000	     89.96848139	     12.64907205	     21.36373736	     43.15607744	     27.07885189	      0.00000000	      0.00000000
      4.09500000	     -5.32066335	      4.35301716	     -0.91058465	     -0.43562438	      0.80758717	     -0.79407650	     49.03650746	     -1.15348099	     -7.45420747	     69.42178504	      1.21163872	     19.83945783	      0.00000000	      0.00000000	     60.87581115	     -5.91810569	    -12.74932110	     26.31450967	      0.45927483	    -26.36126086	      0.00000000	      0.00000000	    -19.95144389	    -27.93928292	    -18.10782995	     83.14343739	    -13.20766757	     16.28348177	     53.23972150	     87.59740204	      0.00000000	      0.00000000	     89.96840968	     12.68189639	     21.40233530	     43.10479399	     27.04878883	      0.00000000	      0.00000000
      4.10000000	     -5.28339258	      4.38588002	     -0.96311729	     -0.43535553	      0.80989389	     -0.79393699	     48.70749177	     -1.14704574	     -7.43745987	     68.88909372	      1.20234150	     19.56084458	      0.00000000	      0.00000000	     60.72227955	     -5.93507087	    -12.71453932	     26.30248774	      0.45906501	    -26.40111728	      0.00000000	      0.00000000	    -19.87115585	    -27.95773004	    -18.01354884	     83.15799863	    -13.18986043	     16.29560370	     53.25706774	     87.59647015	      0.00000000	      0.00000000	     89.96840798	     12.64603729	     21.45232114	     43.06820118	     27.01457491	      0.00000000	      0.00000000
      4.10500000	     -5.32109895	      4.45725684	     -0.93029317	     -0.43509676	      0.81203542	     -0.79394817	     48.47430548	     -1.25327968	     -7.46515926	     68.43265639	      1.19437517	     19.37460097	      0.00000000	      0.00000000	     60.67640123	     -5.86732362	    -12.69744053	     26.31431595	      0.45927145	    -26.39728767	      0.00000000	      0.00000000	    -19.75324162	    -28.02030445	    -18.00823445	     83.14022145	    -13.20809420	     16.29897090	     53.25241411	     87.59557061	      0.00000000	      0.00000000	     89.96830876	     12.63678233	     21.47767471	     43.05458136	     26.99826894	      0.00000000	      0.00000000
      4.11000000	     -5.29982978	      4.41312137	     -0.96532540	     -0.43479028	      0.81429235	     -0.79377916	     48.14691800	     -1.16943386	     -7.48269379	     67.86094297	      1.18439689	     19.04172296	      0.00000000	      0.00000000	     60.54577110	     -5.92834447	    -12.69636565	     26.26504538	      0.45841152	    -26.37317775	      0.00000000	      0.00000000	    -19.66565545	    -28.01512725	    -17.95997920	     83.08551899	    -13.19153531	     16.30368877	     53.27418461	     87.59343543	      0.00000000	      0.00000000	     89.96827796	     12.62563965	     21.55190464	     42.99364617	     26.96671904	      0.00000000	      0.00000000
      4.11500000	     -5.34507352	      4.49428110	     -0.98052313	     -0.43459738	      0.81635122	     -0.79371791	     47.97754943	     -1.25429638	     -7.49513709	     67.49253665	      1.17796699	     18.88901766	      0.00000000	      0.00000000	     60.50726250	     -5.89051698	    -12.68022699	     26.28423636	      0.45874647	    -26.37200090	      0.00000000	      0.00000000	    -19.54189342	    -28.08903633	    -17.93335441	     83.13898430	    -13.18231268	     16.30294171	     53.29424896	     87.59338156	      0.00000000	      0.00000000	     89.96831199	     12.60133478	     21.57099428	     42.97338782	     26.95467758	      0.00000000	      0.00000000
      4.12000000	     -5.34342804	      4.54546859	     -0.98640449	     -0.43419794	      0.81861513	     -0.79364482	     47.64577593	     -1.29572423	     -7.47865170	     66.91620709	      1.16790814	     18.61426945	      0.00000000	      0.00000000	     60.41391395	     -5.86685333	    -12.68272395	     26.29065420	      0.45885848	    -26.30016707	      0.00000000	      0.00000000	    -19.42395926	    -28.19044551	    -17.91762377	     83.02687401	    -13.17873692	     16.33058810	     53.27642988	     87.59517600	      0.00000000	      0.00000000	     89.96817656	     12.59244616	     21.60998203	     42.92989551	     26.93768095	      0.00000000	      0.00000000
      4.12500000	     -5.28176606	      4.47202188	     -1.00470707	     -0.43384331	      0.82087832	     -0.79343021	     47.24606420	     -1.18589990	     -7.52481465	     66.30005971	      1.15715434	     18.26652678	      0.00000000	      0.00000000	     60.25126688	     -5.93216063	    -12.70605834	     26.26105989	      0.45834196	    -26.32186933	      0.00000000	      0.00000000	    -19.37204277	    -28.14943556	    -17.85015309	     82.97788992	    -13.18657188	     16.33610740	     53.29852271	     87.59628524	      0.00000000	      0.00000000	     89.96817191	     12.60884501	     21.69854764	     42.84945160	     26.90870783	      0.00000000	      0.00000000
